<svg width="48" height="49" viewBox="0 0 48 49" fill="none" xmlns="http://www.w3.org/2000/svg">
<path fill-rule="evenodd" clip-rule="evenodd" d="M41.3126 30.9005C42.2291 26.9932 42.2291 22.9268 41.3126 19.0195C39.989 13.3768 35.5832 8.97095 29.9405 7.64736C26.0332 6.73083 21.9668 6.73083 18.0595 7.64736C12.4168 8.97095 8.01098 13.3768 6.6874 19.0195C5.77087 22.9268 5.77087 26.9932 6.68739 30.9005C8.01099 36.5431 12.4168 40.949 18.0595 42.2726C21.9668 43.1891 26.0332 43.1891 29.9405 42.2726C35.5832 40.949 39.989 36.5431 41.3126 30.9005ZM25.1023 19.3612C25.5509 18.9126 26.2783 18.9126 26.7269 19.3612L31.5133 24.1476C31.7287 24.363 31.8498 24.6552 31.8498 24.9599C31.8498 25.2646 31.7287 25.5568 31.5133 25.7722L26.7269 30.5586C26.2783 31.0072 25.5509 31.0072 25.1023 30.5586C24.6537 30.11 24.6537 29.3827 25.1023 28.934L27.9277 26.1086L17.299 26.1086C16.6646 26.1086 16.1503 25.5943 16.1503 24.9599C16.1503 24.3255 16.6646 23.8112 17.299 23.8112L27.9277 23.8112L25.1023 20.9858C24.6537 20.5372 24.6537 19.8098 25.1023 19.3612Z" fill="#FE5B3E" fill-opacity="0.5"/>
</svg>
