<svg width="244" height="244" viewBox="0 0 244 244" fill="none" xmlns="http://www.w3.org/2000/svg">
<g filter="url(#filter0_d_1_535)">
<rect x="57" y="32" width="119.997" height="119.997" rx="59.9986" fill="white"/>
<rect x="54.5" y="29.5" width="124.997" height="124.997" rx="62.4986" stroke="white" stroke-width="5"/>
</g>
<g clip-path="url(#clip0_1_535)">
<path d="M116.999 32V152C150.137 152 177 125.137 177 92.0009C177 58.8608 150.137 32 116.999 32Z" fill="#252F6B"/>
<path d="M116.999 32C83.8629 32 57 58.8618 57 91.9999C57 125.136 83.8629 151.999 116.999 151.999C150.137 151.999 150.137 32 116.999 32Z" fill="#273375"/>
<path d="M98.1482 123.976L102.194 118.932L95.9436 120.064L93.7751 114.01L91.418 120.064L85.0365 118.932L89.0921 123.865L84.8812 128.793L91.2995 127.784L93.4642 133.714L95.8223 127.787L102.369 128.957L98.1482 123.976Z" fill="#F3F4F5"/>
<path d="M145.973 128.432L148.268 125.573L144.725 126.215L143.496 122.784L142.16 126.215L138.544 125.573L140.842 128.367L138.457 131.161L142.093 130.589L143.32 133.947L144.656 130.591L148.365 131.254L145.973 128.432Z" fill="#F3F4F5"/>
<path d="M145.973 65.2729L148.268 62.4137L144.725 63.0559L143.496 59.6255L142.16 63.0559L138.544 62.4137L140.842 65.2093L138.457 68.0013L142.093 67.43L143.32 70.7903L144.656 67.4318L148.365 68.094L145.973 65.2729Z" fill="#F3F4F5"/>
<path d="M160.817 81.611L163.109 78.7518L159.568 79.3943L158.339 75.9639L157.004 79.3943L153.386 78.7518L155.684 81.5477L153.298 84.3405L156.935 83.7682L158.161 87.1287L159.497 83.7702L163.207 84.4324L160.817 81.611Z" fill="#F3F4F5"/>
<path d="M133.134 88.8749L135.428 86.0165L131.885 86.659L130.656 83.2285L129.321 86.659L125.705 86.0165L128.003 88.8103L125.618 91.6041L129.254 91.0328L130.481 94.3903L131.817 91.0349L135.527 91.6971L133.134 88.8749Z" fill="#F3F4F5"/>
<path d="M69.6009 55.2344C68.6592 56.4479 67.7602 57.6938 66.9105 58.9774H73.3422L69.6009 55.2344Z" fill="#29337A"/>
<path d="M100.585 91.9996H106.365L100.585 86.2197V91.9996Z" fill="#29337A"/>
<path d="M81.426 43.688C80.0493 44.7036 78.7241 45.7808 77.4405 46.9071L81.426 50.8909V43.688Z" fill="#29337A"/>
<path d="M75.6442 92.0002H81.4259V86.2185L75.6442 92.0002Z" fill="#29337A"/>
<path d="M116.999 32C111.305 32 105.805 32.8099 100.585 34.2927V50.8906L117.001 34.4754V32H116.999Z" fill="#29337A"/>
<path d="M117.001 86.4682V78.1379H108.671L117.001 86.4682Z" fill="#29337A"/>
<path d="M59.4756 91.9998L73.3402 78.1379H58.6285C57.5741 82.5896 57 87.2269 57 91.9998H59.4756Z" fill="#29337A"/>
<path d="M108.665 58.9776H117.001V50.6436L108.665 58.9776Z" fill="#29337A"/>
<path d="M117.001 88.2181V86.4683L108.67 78.1381H117.001V75.1548H103.937L117.001 88.2181Z" fill="white"/>
<path d="M73.342 58.9772H66.9103C66.2681 59.9503 65.6578 60.9459 65.0713 61.9577H77.7065L70.207 54.4602C70.0015 54.7161 69.7996 54.9747 69.5997 55.2331L73.342 58.9772Z" fill="white"/>
<path d="M81.4259 86.218V91.9997H84.4074V81.8535L74.262 91.9997H75.6442L81.4259 86.218Z" fill="white"/>
<path d="M100.585 34.2917C99.5794 34.577 98.5866 34.8876 97.6041 35.222V55.2551L117.001 35.8597V34.4774L100.585 50.8896V34.2917Z" fill="white"/>
<path d="M81.3207 78.1383L81.4258 78.0332L84.303 75.156H59.4146C59.1276 76.1402 58.8652 77.1341 58.6283 78.1383H73.3401L59.4754 92.0001H67.4581L81.3207 78.1383Z" fill="white"/>
<path d="M59.4753 91.9998L73.3399 78.1379L59.4753 91.9998Z" fill="white"/>
<path d="M117.001 61.959V58.9775H108.665L117.001 50.6435V42.6628L97.7038 61.959H117.001Z" fill="white"/>
<path d="M117.001 50.6436L108.665 58.9776L117.001 50.6436Z" fill="white"/>
<path d="M81.4258 50.8912L77.4403 46.9075C76.0269 48.1496 74.67 49.4569 73.3788 50.8269L81.4258 58.8739L81.5111 58.9611L84.4073 61.8572V41.6335C83.3937 42.292 82.3961 42.9712 81.4268 43.6873V50.8912H81.4258Z" fill="white"/>
<path d="M100.585 86.2198L106.365 91.9997H113.98L97.6032 75.6245V91.9997H100.585V86.2198Z" fill="white"/>
<path d="M81.426 58.8743L81.5114 58.9614L81.426 58.8743Z" fill="#D32030"/>
<path d="M106.918 78.1382L103.937 75.1559H117.001V61.9591H97.7038L97.6042 62.0604V61.9591H97.7038L117.001 42.6639V35.8598L97.6032 55.2563V35.2231C92.9147 36.8252 88.4904 38.987 84.4064 41.6349V61.8575L84.5097 61.9588H84.4064V61.8575L81.5102 58.9616L81.5272 58.9786H81.4258V58.8752L73.3788 50.8282C72.2743 51.9974 71.2161 53.2081 70.2071 54.4623L77.7064 61.9599H65.0714C62.684 66.0753 60.7751 70.4976 59.4146 75.1567H84.303L84.4064 75.0516V75.1567H84.303L81.4258 78.0341V78.1392H81.3207L67.4578 92.0003H74.262L84.4074 81.8539V92.0003H97.6042V75.6249L113.98 92.0003H116.232C116.488 91.7323 116.75 91.466 117.002 91.1904V88.2183L106.918 78.1382Z" fill="#D32030"/>
<path d="M97.6032 55.2566L117.001 35.8601L97.6032 55.2566Z" fill="#D32030"/>
<path d="M81.4257 78.1379V78.0317L81.3206 78.1379H81.4257Z" fill="#D32030"/>
<path d="M84.4073 75.0498L84.3031 75.1549H84.4073V75.0498Z" fill="#D32030"/>
<path d="M97.6032 62.0603L97.7038 61.959H97.6032V62.0603Z" fill="#D32030"/>
<path d="M81.426 58.9774H81.5284L81.5114 58.9614L81.426 58.8743V58.9774Z" fill="#D32030"/>
<path d="M84.5106 61.9593L84.4075 61.8569V61.9593H84.5106Z" fill="#D32030"/>
</g>
<defs>
<filter id="filter0_d_1_535" x="0.872429" y="0.872429" width="242.252" height="242.252" filterUnits="userSpaceOnUse" color-interpolation-filters="sRGB">
<feFlood flood-opacity="0" result="BackgroundImageFix"/>
<feColorMatrix in="SourceAlpha" type="matrix" values="0 0 0 0 0 0 0 0 0 0 0 0 0 0 0 0 0 0 127 0" result="hardAlpha"/>
<feOffset dx="5" dy="30"/>
<feGaussianBlur stdDeviation="28.0638"/>
<feColorMatrix type="matrix" values="0 0 0 0 0.215686 0 0 0 0 0.215686 0 0 0 0 0.215686 0 0 0 0.3 0"/>
<feBlend mode="normal" in2="BackgroundImageFix" result="effect1_dropShadow_1_535"/>
<feBlend mode="normal" in="SourceGraphic" in2="effect1_dropShadow_1_535" result="shape"/>
</filter>
<clipPath id="clip0_1_535">
<rect width="120" height="120" fill="white" transform="translate(57 32)"/>
</clipPath>
</defs>
</svg>
