<svg width="244" height="244" viewBox="0 0 244 244" fill="none" xmlns="http://www.w3.org/2000/svg">
<g filter="url(#filter0_d_1_521)">
<rect x="57" y="32" width="119.997" height="119.997" rx="59.9986" fill="white"/>
<rect x="54.5" y="29.5" width="124.997" height="124.997" rx="62.4986" stroke="white" stroke-width="5"/>
</g>
<g clip-path="url(#clip0_1_521)">
<path d="M117 152C150.137 152 177 125.137 177 92C177 58.8629 150.137 32 117 32C83.8629 32 57 58.8629 57 92C57 125.137 83.8629 152 117 152Z" fill="#F0F0F0"/>
<path d="M177 92.0002C177 66.2023 160.718 44.2098 137.869 35.7322V148.269C160.718 139.791 177 117.798 177 92.0002Z" fill="#D80027"/>
<path d="M57 92.0002C57 117.798 73.2827 139.791 96.1305 148.268V35.7322C73.2827 44.2098 57 66.2023 57 92.0002Z" fill="#0052B4"/>
</g>
<defs>
<filter id="filter0_d_1_521" x="0.872429" y="0.872429" width="242.252" height="242.252" filterUnits="userSpaceOnUse" color-interpolation-filters="sRGB">
<feFlood flood-opacity="0" result="BackgroundImageFix"/>
<feColorMatrix in="SourceAlpha" type="matrix" values="0 0 0 0 0 0 0 0 0 0 0 0 0 0 0 0 0 0 127 0" result="hardAlpha"/>
<feOffset dx="5" dy="30"/>
<feGaussianBlur stdDeviation="28.0638"/>
<feColorMatrix type="matrix" values="0 0 0 0 0.215686 0 0 0 0 0.215686 0 0 0 0 0.215686 0 0 0 0.3 0"/>
<feBlend mode="normal" in2="BackgroundImageFix" result="effect1_dropShadow_1_521"/>
<feBlend mode="normal" in="SourceGraphic" in2="effect1_dropShadow_1_521" result="shape"/>
</filter>
<clipPath id="clip0_1_521">
<rect width="120" height="120" fill="white" transform="translate(57 32)"/>
</clipPath>
</defs>
</svg>
