<svg width="632" height="736" viewBox="0 0 632 736" fill="none" xmlns="http://www.w3.org/2000/svg">
<circle cx="272.24" cy="272.24" r="272.24" transform="matrix(-1 0 0 1 606.817 163.002)" fill="url(#paint0_linear_1_605)"/>
<mask id="mask0_1_605" style="mask-type:alpha" maskUnits="userSpaceOnUse" x="62" y="163" width="545" height="545">
<circle cx="272.24" cy="272.24" r="272.24" transform="matrix(-1 0 0 1 606.817 163.002)" fill="url(#paint1_linear_1_605)"/>
</mask>
<g mask="url(#mask0_1_605)">
<path d="M720.98 595.799C670.633 620.296 614.576 611.73 560.773 615.186C529.964 617.14 498.554 618.042 467.745 615.637C435.884 613.233 406.277 615.938 374.567 620.597C322.718 628.412 273.423 610.377 222.175 607.221C159.054 603.464 95.3324 608.874 32.2116 607.672C22.4429 607.522 22.4429 589.938 32.2116 589.637C95.3324 588.585 159.054 588.736 222.175 590.389C273.423 591.741 328.128 599.106 379.075 590.088C436.786 579.869 494.496 589.788 552.507 584.377C608.114 579.117 663.42 582.123 719.026 578.967C727.893 578.666 727.893 592.493 720.98 595.799Z" fill="white" fill-opacity="0.2"/>
<path d="M705.049 534.934C675.292 533.581 644.934 539.743 614.877 540.044C584.068 540.194 553.409 543.35 522.6 543.651C491.791 544.102 460.982 543.651 430.173 543.951C399.364 544.252 369.307 550.263 338.648 552.518C278.232 556.726 216.765 553.269 156.349 553.269C141.921 553.269 126.141 550.865 111.864 552.518C100.893 553.87 89.6214 557.627 78.6504 559.581C60.6158 562.587 33.1132 575.361 15.9804 562.587C0.95166 551.315 15.5296 522.46 29.8069 534.483C37.6219 541.096 56.4078 532.529 65.425 531.778C77.2977 530.726 88.8699 530.275 100.592 528.171C126.292 523.813 153.794 527.119 179.794 527.119C238.707 527.119 298.521 531.027 357.284 525.466C385.688 522.761 412.74 519.605 441.445 519.755C473.907 519.905 506.82 522.31 539.432 520.506C592.784 517.501 654.252 508.934 705.951 528.772C708.506 529.824 708.205 535.084 705.049 534.934Z" fill="white" fill-opacity="0.2"/>
<path d="M721.431 490.748C688.968 494.205 657.408 486.089 624.946 485.037C593.235 483.985 561.525 486.54 529.814 484.737C463.988 480.98 399.364 471.962 333.238 472.263C301.527 472.413 269.516 470.61 237.955 473.014C210.753 475.118 184.152 482.783 156.8 484.136C130.5 485.488 104.5 489.997 78.35 492.552C49.6451 495.407 20.7898 502.621 -7.9151 502.32C-27.4525 502.02 -27.3022 465.049 -7.9151 466.402C46.6393 470.159 102.095 453.026 156.8 451.523C184.002 450.772 210.753 442.656 237.955 440.853C269.516 438.749 301.677 440.552 333.238 440.702C399.364 440.853 463.988 450.321 529.814 454.529C560.172 456.483 590.68 454.228 621.038 455.431C655.003 456.783 687.916 467.153 721.431 472.413C731.199 473.766 731.65 489.546 721.431 490.748Z" fill="white" fill-opacity="0.2"/>
<path d="M697.986 413.05C666.125 414.703 634.865 417.709 602.854 417.258C572.646 416.808 542.288 415.004 512.08 414.102C452.265 412.299 392.451 413.501 332.636 413.952C275.677 414.403 219.169 417.409 162.06 417.409C130.8 417.409 99.6906 417.409 68.4308 417.559C54.454 417.559 40.327 416.808 26.3503 417.559C11.6221 418.461 -2.50494 423.27 -17.2332 424.172C-33.7648 425.224 -33.9151 393.663 -17.2332 393.663C11.3215 393.363 39.7258 389.155 68.4308 389.155C98.1877 389.155 128.095 389.155 157.852 389.305C216.314 389.305 274.175 386.6 332.636 387.201C390.948 387.802 449.41 387.502 507.721 390.207C571.293 393.212 634.564 401.328 697.986 404.935C702.494 405.085 702.494 412.75 697.986 413.05Z" fill="white" fill-opacity="0.2"/>
<path d="M700.24 352.484C667.627 354.739 635.015 351.132 602.402 351.282C568.888 351.432 535.374 352.033 501.86 352.184C434.681 352.334 367.503 344.97 300.324 347.375C237.354 349.629 174.383 353.085 111.563 347.675C87.9679 345.571 66.0259 345.271 42.4308 348.877C20.4888 352.184 -2.20456 357.143 -24.2968 356.542C-40.3777 356.091 -40.3777 326.034 -24.2968 326.935C20.3386 329.49 64.3728 313.259 109.459 318.97C139.667 322.878 171.227 321.675 201.736 322.126C234.949 322.577 267.411 320.473 300.475 319.421C367.653 317.317 434.832 325.583 502.01 325.883C534.172 326.034 566.333 325.282 598.345 327.086C633.061 329.039 665.974 337.756 700.39 342.265C705.65 343.016 705.951 352.184 700.24 352.484Z" fill="white" fill-opacity="0.2"/>
<path d="M686.263 288.311C624.645 297.178 559.871 294.022 497.803 293.872C431.676 293.722 366.451 282.3 300.325 283.652C267.863 284.404 235.4 280.947 202.938 280.797C172.73 280.797 142.823 286.057 112.766 286.358C84.3613 286.658 56.5582 292.82 28.4543 295.224C14.9285 296.427 2.75519 293.571 -10.6204 296.277C-22.6434 298.681 -35.4178 297.479 -47.5911 297.329C-63.0707 297.329 -63.0707 268.624 -47.5911 268.624C-34.8167 268.624 -23.2446 268.624 -10.7707 266.219C3.05579 263.514 16.5816 268.023 30.4081 266.069C56.8587 262.462 83.0088 257.803 109.61 257.202C139.517 256.601 168.973 251.491 198.88 251.641C232.695 251.791 266.51 254.947 300.475 254.497C365.399 253.745 429.121 265.618 493.895 266.52C526.808 266.97 559.571 266.369 592.484 267.572C608.414 268.173 624.645 267.872 640.576 269.676C656.055 271.479 670.934 276.138 686.414 277.791C691.824 278.693 691.674 287.56 686.263 288.311Z" fill="white" fill-opacity="0.2"/>
</g>
<circle opacity="0.5" cx="316" cy="316" r="315.528" transform="matrix(-1 0 0 1 632 104)" stroke="#A8A8A8" stroke-width="0.944809"/>
<defs>
<linearGradient id="paint0_linear_1_605" x1="177.81" y1="328.165" x2="395.88" y2="70.3532" gradientUnits="userSpaceOnUse">
<stop stop-color="#FE5B3E"/>
<stop offset="1" stop-color="#FE7B49"/>
</linearGradient>
<linearGradient id="paint1_linear_1_605" x1="272.24" y1="0" x2="272.24" y2="544.479" gradientUnits="userSpaceOnUse">
<stop stop-color="#FE5B3E"/>
<stop offset="1" stop-color="#FE7B49"/>
</linearGradient>
</defs>
</svg>
