<svg width="244" height="244" viewBox="0 0 244 244" fill="none" xmlns="http://www.w3.org/2000/svg">
<g filter="url(#filter0_d_1_580)">
<rect x="57" y="32" width="119.997" height="119.997" rx="59.9986" fill="white"/>
<rect x="54.5" y="29.5" width="124.997" height="124.997" rx="62.4986" stroke="white" stroke-width="5"/>
</g>
<g clip-path="url(#clip0_1_580)">
<path d="M117 152C150.137 152 177 125.137 177 92C177 58.8629 150.137 32 117 32C83.8629 32 57 58.8629 57 92C57 125.137 83.8629 152 117 152Z" fill="#F0F0F0"/>
<path d="M177 91.9998C177 68.2121 163.157 47.6584 143.087 37.9534V146.046C163.157 136.341 177 115.787 177 91.9998Z" fill="#D80027"/>
<path d="M57 91.9998C57 115.787 70.8434 136.341 90.9131 146.046V37.9534C70.8434 47.6584 57 68.2121 57 91.9998Z" fill="#6DA544"/>
<path d="M101.348 91.9999C101.348 100.644 108.356 107.652 117 107.652C125.644 107.652 132.652 100.644 132.652 91.9999V86.7825H101.348V91.9999Z" fill="#6DA544"/>
<path d="M137.869 81.5653H122.217C122.217 78.6839 119.881 76.3479 117 76.3479C114.118 76.3479 111.782 78.6839 111.782 81.5653H96.13C96.13 84.447 98.6399 86.7827 101.521 86.7827H101.347C101.347 89.6644 103.683 92.0002 106.565 92.0002C106.565 94.8818 108.901 97.2176 111.782 97.2176H122.217C125.099 97.2176 127.435 94.8818 127.435 92.0002C130.316 92.0002 132.652 89.6644 132.652 86.7827H132.478C135.36 86.7827 137.869 84.447 137.869 81.5653Z" fill="#FF9811"/>
</g>
<defs>
<filter id="filter0_d_1_580" x="0.872429" y="0.872429" width="242.252" height="242.252" filterUnits="userSpaceOnUse" color-interpolation-filters="sRGB">
<feFlood flood-opacity="0" result="BackgroundImageFix"/>
<feColorMatrix in="SourceAlpha" type="matrix" values="0 0 0 0 0 0 0 0 0 0 0 0 0 0 0 0 0 0 127 0" result="hardAlpha"/>
<feOffset dx="5" dy="30"/>
<feGaussianBlur stdDeviation="28.0638"/>
<feColorMatrix type="matrix" values="0 0 0 0 0.215686 0 0 0 0 0.215686 0 0 0 0 0.215686 0 0 0 0.3 0"/>
<feBlend mode="normal" in2="BackgroundImageFix" result="effect1_dropShadow_1_580"/>
<feBlend mode="normal" in="SourceGraphic" in2="effect1_dropShadow_1_580" result="shape"/>
</filter>
<clipPath id="clip0_1_580">
<rect width="120" height="120" fill="white" transform="translate(57 32)"/>
</clipPath>
</defs>
</svg>
