<svg width="36" height="37" viewBox="0 0 36 37" fill="none" xmlns="http://www.w3.org/2000/svg">
<path fill-rule="evenodd" clip-rule="evenodd" d="M0.687393 24.9005C-0.229137 20.9932 -0.229134 16.9268 0.687393 13.0195C2.01099 7.37679 6.41682 2.97095 12.0595 1.64736C15.9668 0.730828 20.0332 0.730828 23.9405 1.64736C29.5832 2.97095 33.989 7.3768 35.3126 13.0195C36.2291 16.9268 36.2291 20.9932 35.3126 24.9005C33.989 30.5431 29.5832 34.949 23.9405 36.2726C20.0332 37.1891 15.9668 37.1891 12.0595 36.2726C6.41683 34.949 2.01098 30.5431 0.687393 24.9005ZM16.8977 13.3612C16.4491 12.9126 15.7217 12.9126 15.2731 13.3612L10.4867 18.1476C10.2713 18.363 10.1502 18.6552 10.1502 18.9599C10.1502 19.2646 10.2713 19.5568 10.4867 19.7722L15.2731 24.5586C15.7217 25.0072 16.4491 25.0072 16.8977 24.5586C17.3463 24.11 17.3463 23.3827 16.8977 22.934L14.0723 20.1086L24.701 20.1086C25.3354 20.1086 25.8497 19.5943 25.8497 18.9599C25.8497 18.3255 25.3354 17.8112 24.701 17.8112L14.0723 17.8112L16.8977 14.9858C17.3463 14.5372 17.3463 13.8098 16.8977 13.3612Z" fill="#FE5B3E"/>
</svg>
