<svg width="110" height="48" viewBox="0 0 110 48" fill="none" xmlns="http://www.w3.org/2000/svg">
<path fill-rule="evenodd" clip-rule="evenodd" d="M65.0002 23.9998C65.0002 23.6019 65.1582 23.2204 65.4395 22.9391C65.7208 22.6578 66.1024 22.4998 66.5002 22.4998H101.879L92.4382 13.0618C92.2987 12.9223 92.1881 12.7567 92.1126 12.5745C92.0371 12.3923 91.9983 12.197 91.9983 11.9998C91.9983 11.8025 92.0371 11.6072 92.1126 11.425C92.1881 11.2428 92.2987 11.0772 92.4382 10.9378C92.5777 10.7983 92.7432 10.6877 92.9254 10.6122C93.1077 10.5367 93.303 10.4979 93.5002 10.4979C93.6974 10.4979 93.8927 10.5367 94.0749 10.6122C94.2572 10.6877 94.4227 10.7983 94.5622 10.9378L106.562 22.9378C106.702 23.0771 106.813 23.2426 106.888 23.4249C106.964 23.6071 107.003 23.8025 107.003 23.9998C107.003 24.1971 106.964 24.3924 106.888 24.5747C106.813 24.7569 106.702 24.9224 106.562 25.0618L94.5622 37.0618C94.4227 37.2012 94.2572 37.3118 94.0749 37.3873C93.8927 37.4628 93.6974 37.5016 93.5002 37.5016C93.303 37.5016 93.1077 37.4628 92.9254 37.3873C92.7432 37.3118 92.5777 37.2012 92.4382 37.0618C92.2987 36.9223 92.1881 36.7567 92.1126 36.5745C92.0371 36.3923 91.9983 36.197 91.9983 35.9998C91.9983 35.8025 92.0371 35.6072 92.1126 35.425C92.1881 35.2428 92.2987 35.0772 92.4382 34.9378L101.879 25.4998H66.5002C66.1024 25.4998 65.7208 25.3417 65.4395 25.0604C65.1582 24.7791 65.0002 24.3976 65.0002 23.9998Z" fill="#FE5B3E"/>
<g opacity="0.5">
<path fill-rule="evenodd" clip-rule="evenodd" d="M29.9999 23.9998C29.9999 23.7345 29.8945 23.4802 29.707 23.2927C29.5195 23.1051 29.2651 22.9998 28.9999 22.9998H5.4139L11.7079 16.7078C11.8009 16.6148 11.8746 16.5044 11.9249 16.3829C11.9753 16.2615 12.0012 16.1313 12.0012 15.9998C12.0012 15.8683 11.9753 15.7381 11.9249 15.6166C11.8746 15.4951 11.8009 15.3847 11.7079 15.2918C11.6149 15.1988 11.5045 15.125 11.3831 15.0747C11.2616 15.0244 11.1314 14.9985 10.9999 14.9985C10.8684 14.9985 10.7382 15.0244 10.6167 15.0747C10.4952 15.125 10.3849 15.1988 10.2919 15.2918L2.2919 23.2918C2.19877 23.3847 2.12488 23.495 2.07447 23.6165C2.02406 23.738 1.99811 23.8682 1.99811 23.9998C1.99811 24.1313 2.02406 24.2615 2.07447 24.383C2.12488 24.5045 2.19877 24.6149 2.2919 24.7078L10.2919 32.7078C10.3849 32.8007 10.4952 32.8745 10.6167 32.9248C10.7382 32.9751 10.8684 33.001 10.9999 33.001C11.1314 33.001 11.2616 32.9751 11.3831 32.9248C11.5045 32.8745 11.6149 32.8007 11.7079 32.7078C11.8009 32.6148 11.8746 32.5044 11.9249 32.3829C11.9753 32.2615 12.0012 32.1313 12.0012 31.9998C12.0012 31.8683 11.9753 31.7381 11.9249 31.6166C11.8746 31.4951 11.8009 31.3847 11.7079 31.2918L5.4139 24.9998H28.9999C29.2651 24.9998 29.5195 24.8944 29.707 24.7069C29.8945 24.5193 29.9999 24.265 29.9999 23.9998Z" fill="#FE5B3E"/>
</g>
</svg>
