<svg width="100" height="24" viewBox="0 0 100 24" fill="none" xmlns="http://www.w3.org/2000/svg">
<path d="M4.49225 18L0.39625 6.8H2.58825L5.75625 15.904L8.94025 6.8H11.1003L7.00425 18H4.49225ZM13.4878 8.832C13.1144 8.832 12.8051 8.72 12.5598 8.496C12.3251 8.272 12.2078 7.98933 12.2078 7.648C12.2078 7.30667 12.3251 7.02933 12.5598 6.816C12.8051 6.592 13.1144 6.48 13.4878 6.48C13.8611 6.48 14.1651 6.592 14.3998 6.816C14.6451 7.02933 14.7678 7.30667 14.7678 7.648C14.7678 7.98933 14.6451 8.272 14.3998 8.496C14.1651 8.72 13.8611 8.832 13.4878 8.832ZM12.4638 18V10.064H14.5118V18H12.4638ZM20.5054 18.192C19.7054 18.192 18.996 18.0213 18.3774 17.68C17.7587 17.3387 17.2734 16.8587 16.9214 16.24C16.5694 15.6213 16.3934 14.9067 16.3934 14.096C16.3934 13.2747 16.564 12.544 16.9054 11.904C17.2574 11.264 17.7374 10.768 18.3454 10.416C18.964 10.0533 19.6894 9.872 20.5214 9.872C21.3 9.872 21.988 10.0427 22.5854 10.384C23.1827 10.7253 23.6467 11.1947 23.9774 11.792C24.3187 12.3787 24.4894 13.0347 24.4894 13.76C24.4894 13.8773 24.484 14 24.4734 14.128C24.4734 14.256 24.468 14.3893 24.4574 14.528H18.4254C18.468 15.1467 18.6814 15.632 19.0654 15.984C19.46 16.336 19.9347 16.512 20.4894 16.512C20.9054 16.512 21.252 16.4213 21.5294 16.24C21.8174 16.048 22.0307 15.8027 22.1694 15.504H24.2494C24.1 16.0053 23.8494 16.464 23.4974 16.88C23.156 17.2853 22.7294 17.6053 22.2174 17.84C21.716 18.0747 21.1454 18.192 20.5054 18.192ZM20.5214 11.536C20.02 11.536 19.5774 11.68 19.1934 11.968C18.8094 12.2453 18.564 12.672 18.4574 13.248H22.4094C22.3774 12.7253 22.1854 12.3093 21.8334 12C21.4814 11.6907 21.044 11.536 20.5214 11.536ZM27.4514 18L25.1314 10.064H27.1634L28.5394 15.776L30.1394 10.064H32.4114L34.0114 15.776L35.4034 10.064H37.4354L35.0994 18H32.9714L31.2754 12.064L29.5794 18H27.4514ZM41.868 18L45.964 6.8H48.268L52.364 18H50.188L49.292 15.408H44.924L44.012 18H41.868ZM45.484 13.808H48.732L47.1 9.152L45.484 13.808ZM53.7588 18V6.48H55.8068V18H53.7588ZM57.8994 18V6.48H59.9474V18H57.8994Z" fill="white"/>
<path fill-rule="evenodd" clip-rule="evenodd" d="M77.5 11.9998C77.5 11.8009 77.5791 11.6102 77.7197 11.4695C77.8604 11.3289 78.0511 11.2498 78.25 11.2498H95.9395L91.219 6.53085C91.1493 6.46112 91.094 6.37833 91.0563 6.28722C91.0185 6.19612 90.9991 6.09846 90.9991 5.99985C90.9991 5.90123 91.0185 5.80358 91.0563 5.71247C91.094 5.62136 91.1493 5.53858 91.219 5.46885C91.2888 5.39912 91.3716 5.3438 91.4627 5.30606C91.5538 5.26833 91.6514 5.2489 91.75 5.2489C91.8487 5.2489 91.9463 5.26833 92.0374 5.30606C92.1285 5.3438 92.2113 5.39912 92.281 5.46885L98.281 11.4688C98.3509 11.5385 98.4063 11.6213 98.4441 11.7124C98.4819 11.8035 98.5014 11.9012 98.5014 11.9998C98.5014 12.0985 98.4819 12.1962 98.4441 12.2873C98.4063 12.3784 98.3509 12.4612 98.281 12.5308L92.281 18.5308C92.2113 18.6006 92.1285 18.6559 92.0374 18.6936C91.9463 18.7314 91.8487 18.7508 91.75 18.7508C91.6514 18.7508 91.5538 18.7314 91.4627 18.6936C91.3716 18.6559 91.2888 18.6006 91.219 18.5308C91.1493 18.4611 91.094 18.3783 91.0563 18.2872C91.0185 18.1961 90.9991 18.0985 90.9991 17.9998C90.9991 17.9012 91.0185 17.8036 91.0563 17.7125C91.094 17.6214 91.1493 17.5386 91.219 17.4688L95.9395 12.7498H78.25C78.0511 12.7498 77.8604 12.6708 77.7197 12.5302C77.5791 12.3895 77.5 12.1988 77.5 11.9998Z" fill="white"/>
</svg>
