<svg width="120" height="20" viewBox="0 0 120 20" fill="none" xmlns="http://www.w3.org/2000/svg">
<path d="M14.9321 11.9336C14.7163 12.1428 14.6171 12.4453 14.6663 12.742L15.4071 16.842C15.4696 17.1895 15.3229 17.5411 15.0321 17.742C14.7471 17.9503 14.3679 17.9753 14.0571 17.8086L10.3663 15.8836C10.2379 15.8153 10.0954 15.7786 9.9496 15.7745H9.72376C9.64543 15.7861 9.56876 15.8111 9.49876 15.8495L5.8071 17.7836C5.6246 17.8753 5.41793 17.9078 5.21543 17.8753C4.7221 17.782 4.39293 17.312 4.47376 16.8161L5.21543 12.7161C5.2646 12.417 5.16543 12.1128 4.9496 11.9003L1.94043 8.98362C1.68876 8.73945 1.60126 8.37279 1.71626 8.04195C1.82793 7.71195 2.11293 7.47112 2.4571 7.41695L6.59876 6.81612C6.91376 6.78362 7.19043 6.59195 7.3321 6.30862L9.1571 2.56695C9.20043 2.48362 9.25626 2.40695 9.32376 2.34195L9.39876 2.28362C9.43793 2.24028 9.48293 2.20445 9.53293 2.17528L9.62376 2.14195L9.76543 2.08362H10.1163C10.4296 2.11612 10.7054 2.30362 10.8496 2.58362L12.6988 6.30862C12.8321 6.58112 13.0913 6.77029 13.3904 6.81612L17.5321 7.41695C17.8821 7.46695 18.1746 7.70862 18.2904 8.04195C18.3996 8.37612 18.3054 8.74278 18.0488 8.98362L14.9321 11.9336Z" fill="#FE5B3E"/>
<path d="M39.9321 11.9336C39.7163 12.1428 39.6171 12.4453 39.6663 12.742L40.4071 16.842C40.4696 17.1895 40.3229 17.5411 40.0321 17.742C39.7471 17.9503 39.3679 17.9753 39.0571 17.8086L35.3663 15.8836C35.2379 15.8153 35.0954 15.7786 34.9496 15.7745H34.7238C34.6454 15.7861 34.5688 15.8111 34.4988 15.8495L30.8071 17.7836C30.6246 17.8753 30.4179 17.9078 30.2154 17.8753C29.7221 17.782 29.3929 17.312 29.4738 16.8161L30.2154 12.7161C30.2646 12.417 30.1654 12.1128 29.9496 11.9003L26.9404 8.98362C26.6888 8.73945 26.6013 8.37279 26.7163 8.04195C26.8279 7.71195 27.1129 7.47112 27.4571 7.41695L31.5988 6.81612C31.9138 6.78362 32.1904 6.59195 32.3321 6.30862L34.1571 2.56695C34.2004 2.48362 34.2563 2.40695 34.3238 2.34195L34.3988 2.28362C34.4379 2.24028 34.4829 2.20445 34.5329 2.17528L34.6238 2.14195L34.7654 2.08362H35.1163C35.4296 2.11612 35.7054 2.30362 35.8496 2.58362L37.6988 6.30862C37.8321 6.58112 38.0913 6.77029 38.3904 6.81612L42.5321 7.41695C42.8821 7.46695 43.1746 7.70862 43.2904 8.04195C43.3996 8.37612 43.3054 8.74278 43.0488 8.98362L39.9321 11.9336Z" fill="#FE5B3E"/>
<path d="M64.9321 11.9336C64.7163 12.1428 64.6171 12.4453 64.6663 12.742L65.4071 16.842C65.4696 17.1895 65.3229 17.5411 65.0321 17.742C64.7471 17.9503 64.3679 17.9753 64.0571 17.8086L60.3663 15.8836C60.2379 15.8153 60.0954 15.7786 59.9496 15.7745H59.7238C59.6454 15.7861 59.5688 15.8111 59.4988 15.8495L55.8071 17.7836C55.6246 17.8753 55.4179 17.9078 55.2154 17.8753C54.7221 17.782 54.3929 17.312 54.4738 16.8161L55.2154 12.7161C55.2646 12.417 55.1654 12.1128 54.9496 11.9003L51.9404 8.98362C51.6888 8.73945 51.6013 8.37279 51.7163 8.04195C51.8279 7.71195 52.1129 7.47112 52.4571 7.41695L56.5988 6.81612C56.9138 6.78362 57.1904 6.59195 57.3321 6.30862L59.1571 2.56695C59.2004 2.48362 59.2563 2.40695 59.3238 2.34195L59.3988 2.28362C59.4379 2.24028 59.4829 2.20445 59.5329 2.17528L59.6238 2.14195L59.7654 2.08362H60.1163C60.4296 2.11612 60.7054 2.30362 60.8496 2.58362L62.6988 6.30862C62.8321 6.58112 63.0913 6.77029 63.3904 6.81612L67.5321 7.41695C67.8821 7.46695 68.1746 7.70862 68.2904 8.04195C68.3996 8.37612 68.3054 8.74278 68.0488 8.98362L64.9321 11.9336Z" fill="#FE5B3E"/>
<path d="M89.9321 11.9336C89.7163 12.1428 89.6171 12.4453 89.6663 12.742L90.4071 16.842C90.4696 17.1895 90.3229 17.5411 90.0321 17.742C89.7471 17.9503 89.3679 17.9753 89.0571 17.8086L85.3663 15.8836C85.2379 15.8153 85.0954 15.7786 84.9496 15.7745H84.7238C84.6454 15.7861 84.5688 15.8111 84.4988 15.8495L80.8071 17.7836C80.6246 17.8753 80.4179 17.9078 80.2154 17.8753C79.7221 17.782 79.3929 17.312 79.4738 16.8161L80.2154 12.7161C80.2646 12.417 80.1654 12.1128 79.9496 11.9003L76.9404 8.98362C76.6888 8.73945 76.6013 8.37279 76.7163 8.04195C76.8279 7.71195 77.1129 7.47112 77.4571 7.41695L81.5988 6.81612C81.9138 6.78362 82.1904 6.59195 82.3321 6.30862L84.1571 2.56695C84.2004 2.48362 84.2563 2.40695 84.3238 2.34195L84.3988 2.28362C84.4379 2.24028 84.4829 2.20445 84.5329 2.17528L84.6238 2.14195L84.7654 2.08362H85.1163C85.4296 2.11612 85.7054 2.30362 85.8496 2.58362L87.6988 6.30862C87.8321 6.58112 88.0913 6.77029 88.3904 6.81612L92.5321 7.41695C92.8821 7.46695 93.1746 7.70862 93.2904 8.04195C93.3996 8.37612 93.3054 8.74278 93.0488 8.98362L89.9321 11.9336Z" fill="#FE5B3E"/>
<path d="M114.932 11.9336C114.716 12.1428 114.617 12.4453 114.666 12.742L115.407 16.842C115.47 17.1895 115.323 17.5411 115.032 17.742C114.747 17.9503 114.368 17.9753 114.057 17.8086L110.366 15.8836C110.238 15.8153 110.095 15.7786 109.95 15.7745H109.724C109.645 15.7861 109.569 15.8111 109.499 15.8495L105.807 17.7836C105.625 17.8753 105.418 17.9078 105.215 17.8753C104.722 17.782 104.393 17.312 104.474 16.8161L105.215 12.7161C105.265 12.417 105.165 12.1128 104.95 11.9003L101.94 8.98362C101.689 8.73945 101.601 8.37279 101.716 8.04195C101.828 7.71195 102.113 7.47112 102.457 7.41695L106.599 6.81612C106.914 6.78362 107.19 6.59195 107.332 6.30862L109.157 2.56695C109.2 2.48362 109.256 2.40695 109.324 2.34195L109.399 2.28362C109.438 2.24028 109.483 2.20445 109.533 2.17528L109.624 2.14195L109.765 2.08362H110.116C110.43 2.11612 110.705 2.30362 110.85 2.58362L112.699 6.30862C112.832 6.58112 113.091 6.77029 113.39 6.81612L117.532 7.41695C117.882 7.46695 118.175 7.70862 118.29 8.04195C118.4 8.37612 118.305 8.74278 118.049 8.98362L114.932 11.9336Z" fill="#FE5B3E"/>
</svg>
