<svg width="57" height="28" viewBox="0 0 57 28" fill="none" xmlns="http://www.w3.org/2000/svg">
<path d="M7.146 20H9.666V17.444H11.25V15.248H9.666V7.04H6.732L0.846 15.464V17.444H7.146V20ZM3.618 15.248L7.308 9.74V15.248H3.618ZM15.7884 18.65C15.7884 17.822 15.1404 17.174 14.2584 17.174C13.3404 17.174 12.6924 17.822 12.6924 18.65C12.6924 19.478 13.3404 20.126 14.2584 20.126C15.1404 20.126 15.7884 19.478 15.7884 18.65ZM19.7262 13.052C18.4302 13.592 17.6202 14.726 17.6202 16.274C17.6202 18.776 19.6722 20.288 22.3542 20.288C25.0542 20.288 27.1062 18.776 27.1062 16.274C27.1062 14.744 26.2962 13.61 25.0002 13.052C26.0262 12.53 26.7822 11.54 26.7822 10.154C26.7822 8.282 25.3422 6.626 22.3542 6.626C19.3662 6.626 17.9262 8.264 17.9262 10.154C17.9262 11.576 18.6462 12.494 19.7262 13.052ZM22.3542 12.314C21.2202 12.314 20.3922 11.612 20.3922 10.532C20.3922 9.308 21.1842 8.66 22.3542 8.66C23.5602 8.66 24.3342 9.326 24.3342 10.514C24.3342 11.594 23.5062 12.314 22.3542 12.314ZM22.3542 14.15C23.7042 14.15 24.6402 14.87 24.6402 16.166C24.6402 17.318 23.7942 18.2 22.3542 18.2C20.9142 18.2 20.0502 17.336 20.0502 16.166C20.0502 14.834 21.0402 14.15 22.3542 14.15Z" fill="white"/>
<path d="M52.4389 15.7402C52.2447 15.9284 52.1554 16.2007 52.1997 16.4677L52.8664 20.1577C52.9227 20.4704 52.7907 20.787 52.5289 20.9677C52.2724 21.1552 51.9312 21.1777 51.6514 21.0277L48.3297 19.2952C48.2142 19.2337 48.0859 19.2007 47.9547 19.1969H47.7514C47.6809 19.2074 47.6119 19.2299 47.5489 19.2644L44.2264 21.0052C44.0622 21.0877 43.8762 21.117 43.6939 21.0877C43.2499 21.0037 42.9537 20.5807 43.0264 20.1344L43.6939 16.4444C43.7382 16.1752 43.6489 15.9014 43.4547 15.7102L40.7464 13.0852C40.5199 12.8654 40.4412 12.5354 40.5447 12.2377C40.6452 11.9407 40.9017 11.7239 41.2114 11.6752L44.9389 11.1344C45.2224 11.1052 45.4714 10.9327 45.5989 10.6777L47.2414 7.3102C47.2804 7.2352 47.3307 7.1662 47.3914 7.1077L47.4589 7.0552C47.4942 7.0162 47.5347 6.98395 47.5797 6.9577L47.6614 6.9277L47.7889 6.8752H48.1047C48.3867 6.90445 48.6349 7.0732 48.7647 7.3252L50.4289 10.6777C50.5489 10.9229 50.7822 11.0932 51.0514 11.1344L54.7789 11.6752C55.0939 11.7202 55.3572 11.9377 55.4614 12.2377C55.5597 12.5384 55.4749 12.8684 55.2439 13.0852L52.4389 15.7402Z" fill="white"/>
</svg>
