<svg
                  width="40"
                  height="40"
                  viewBox="0 0 40 40"
                  fill="none"
                  xmlns="http://www.w3.org/2000/svg"
                >
                  <g clip-path="url(#clip0_1_900)">
                    <path
                      d="M16.1712 26.9015L18.7968 14.0105L19.8002 13.4686L21.5336 15.027C20.6138 16.3859 20.0765 18.0248 20.0765 19.7893C20.0765 24.4872 23.8848 28.2955 28.5827 28.2955C33.2806 28.2955 37.089 24.4872 37.089 19.7893C37.089 15.0914 33.2806 11.283 28.5827 11.283C26.4925 11.283 24.5788 12.0374 23.0979 13.2881L20.902 11.3139L17.693 5.3725L21.7764 3.16711L22.1676 3.8875C22.3257 4.17859 22.3607 4.51383 22.2663 4.83133C22.1719 5.14883 21.9594 5.41039 21.668 5.56781L20.7149 6.08258L21.8264 8.14062L22.7795 7.62586C23.6216 7.17109 24.2355 6.41539 24.5084 5.49813C24.7811 4.58078 24.6798 3.61242 24.2231 2.77133L22.7182 0L14.5235 4.42594L18.3845 11.5747L7.26477 17.5805L6.92797 16.957C6.10695 15.4368 4.20219 14.868 2.68211 15.6891L0.51375 16.8602L1.62531 18.9182L3.79367 17.747C3.98039 17.6462 4.19508 17.6241 4.39844 17.6848C4.60172 17.7455 4.76922 17.8818 4.87008 18.0684L5.68563 19.5785L6.31039 22.3747C2.67688 23.343 0 26.6558 0 30.5942C0 35.2921 3.80836 39.1005 8.50625 39.1005C13.2041 39.1005 17.0125 35.2921 17.0125 30.5942C17.0126 29.271 16.7103 28.0184 16.1712 26.9015ZM23.0978 13.288L29.3646 18.9223L27.8008 20.6616L21.5335 15.027C21.9731 14.3776 22.5004 13.7926 23.0978 13.288ZM16.1148 15.459L14.3004 24.3673C12.8126 22.9823 10.8281 22.1243 8.64336 22.0897L8.12586 19.7738L16.1148 15.459ZM8.50625 22.088C8.55211 22.088 8.59766 22.089 8.64328 22.0897L10.0673 28.4628L13.8863 26.4002L14.3003 24.3673C15.0709 25.0846 15.7085 25.9428 16.1712 26.9014L15.9599 27.9385L8.45875 31.9899L6.31039 22.3748C7.01094 22.188 7.74687 22.088 8.50625 22.088Z"
                      fill="#FE5B3E"
                    />
                    <path
                      d="M34.0743 30.5868H30.3139C28.9151 30.5868 27.5643 31.0933 26.5103 32.0128L25.2781 33.0877H24.301C22.2556 33.0877 20.3425 34.1841 19.3085 35.9491L16.9354 40.0001H40V23.4476L34.0743 30.5868Z"
                      fill="#FE5B3E"
                    />
                  </g>
                  <defs>
                    <clipPath id="clip0_1_900">
                      <rect width="40" height="40" fill="white" />
                    </clipPath>
                  </defs>
                </svg>