<svg
                  width="40"
                  height="40"
                  viewBox="0 0 40 40"
                  fill="none"
                  xmlns="http://www.w3.org/2000/svg"
                >
                  <g clip-path="url(#clip0_1_871)">
                    <path
                      d="M24.5153 12.5576L25.6243 12.3084C25.7952 11.9256 26.0461 11.591 26.3543 11.3272C25.3119 11.0799 24.4299 10.4144 23.8964 9.51758L22.8092 9.76185C23.7391 10.3816 24.3867 11.3924 24.5153 12.5576Z"
                      fill="#FE5B3E"
                    />
                    <path
                      d="M13.8956 38.0484L15.4574 31.8953C15.4897 31.768 15.5325 31.6436 15.5854 31.5233L15.7262 31.2031C15.4796 31.032 15.2943 30.8042 15.1719 30.5234C15.0664 31.4625 14.4093 32.237 13.5329 32.5139C13.3423 32.9838 12.9235 33.3371 12.4144 33.4357L11.7649 37.804C11.6137 38.8206 12.3153 39.7674 13.332 39.9185C13.6012 39.9585 13.877 39.9415 14.16 39.8529C13.8467 39.3296 13.7337 38.6864 13.8956 38.0484Z"
                      fill="#FE5B3E"
                    />
                    <path
                      d="M16.1047 23.8496C16.0562 23.8389 15.2799 23.6691 15.1583 23.6425C15.1772 23.7626 15.1871 23.8856 15.1871 24.0109V28.8642C15.4004 27.6993 15.8663 25.153 16.1047 23.8496Z"
                      fill="#FE5B3E"
                    />
                    <path
                      d="M21.1264 15.8382C22.7007 15.583 23.77 14.0999 23.5148 12.5256C23.2596 10.9513 21.7765 9.88195 20.2022 10.1372C18.6279 10.3924 17.5586 11.8755 17.8138 13.4498C18.069 15.0241 19.5521 16.0934 21.1264 15.8382Z"
                      fill="#FE5B3E"
                    />
                    <path
                      d="M23.5328 30.4938H24.7368C25.1035 30.4938 25.3822 30.1295 25.3105 29.7377L25.2657 29.4929C25.0197 29.3996 24.7943 29.2488 24.6109 29.0497C24.2698 28.6793 24.0993 28.1752 24.143 27.6668L24.3952 24.7351L23.777 21.3566L22.6613 21.4889C21.7792 21.5934 20.9533 21.2002 20.4636 20.5311L18.6467 23.4693C18.0847 24.3781 17.0754 24.0589 17.0655 24.0596L16.0266 29.7378C15.9549 30.1297 16.2322 30.4939 16.6002 30.4939H17.1403L16.5089 31.9296C16.4785 31.9988 16.4538 32.0703 16.4353 32.1436L14.8735 38.2966C14.6878 39.0281 15.1303 39.7717 15.8618 39.9573C16.5931 40.1429 17.3368 39.7006 17.5225 38.969L19.0564 32.926L20.1261 30.4939H20.7999V31.4768V33.1715C20.7999 33.344 20.8325 33.515 20.8961 33.6753L23.0621 39.1365C23.34 39.837 24.1336 40.1816 24.8362 39.903C25.0002 39.838 25.1437 39.7438 25.2652 39.6301C25.0198 39.1895 24.889 38.6778 24.912 38.1369L24.9793 36.5573L23.5329 32.9104V31.4768V30.4938H23.5328Z"
                      fill="#FE5B3E"
                    />
                    <path
                      d="M15.7864 6.84281C17.6713 6.70102 19.0843 5.05811 18.9425 3.17327C18.8007 1.28843 17.1578 -0.124593 15.273 0.0171951C13.3881 0.158984 11.9751 1.80189 12.1169 3.68673C12.2587 5.57157 13.9016 6.9846 15.7864 6.84281Z"
                      fill="#FE5B3E"
                    />
                    <path
                      d="M9.52423 32.6239H8.0517C7.80196 33.1215 7.2881 33.4646 6.69451 33.4646H6.59104L5.94583 37.8045C5.79472 38.8212 6.49631 39.7679 7.51293 39.919C8.53197 40.0705 9.47667 39.3662 9.62739 38.3519L10.3676 33.3731C9.99974 33.2403 9.69799 32.9701 9.52423 32.6239Z"
                      fill="#FE5B3E"
                    />
                    <path
                      d="M21.2467 17.0436C20.6268 17.0436 20.1261 17.0436 19.4788 17.0436C18.8221 17.0436 18.2571 17.5473 18.1296 18.2441L17.9363 19.3004L19.2545 18.5445L16.8914 20.8305L13.2774 20.0396C12.7008 19.9132 12.1303 20.2788 12.004 20.8558C11.9423 21.1376 11.9986 21.4173 12.1388 21.6449H12.8214C13.5674 21.6449 14.2334 21.9922 14.6673 22.5333L16.9942 23.0426C17.3424 23.1189 17.708 23.0166 17.9664 22.7665L20.3886 20.4232C20.1964 20.1273 20.067 19.7841 20.0226 19.4101C19.9048 18.4165 20.4186 17.4943 21.2467 17.0436Z"
                      fill="#FE5B3E"
                    />
                    <path
                      d="M27.2558 10.451C28.8705 10.451 30.1795 9.14201 30.1795 7.52731C30.1795 5.91261 28.8705 4.60364 27.2558 4.60364C25.6411 4.60364 24.3322 5.91261 24.3322 7.52731C24.3322 9.14201 25.6411 10.451 27.2558 10.451Z"
                      fill="#FE5B3E"
                    />
                    <path
                      d="M36.5711 26.6581L32.6244 12.7314C32.3798 11.868 31.6141 11.3338 30.8192 11.4097C29.6616 11.5202 28.9281 11.5903 27.8852 11.6899C27.0753 11.7672 26.4378 12.4549 26.3626 13.3292L26.1074 16.2962L26.3741 16.2646L28.3433 14.3284L26.5427 17.3024L22.2255 17.8143C21.4988 17.9005 20.9797 18.5594 21.0658 19.2859C21.1521 20.0136 21.8119 20.5317 22.5375 20.4456L27.4971 19.8576C27.9025 19.8095 28.2631 19.5772 28.4745 19.2281L30.6101 15.7007L29.3732 19.7722C29.0119 20.9614 27.763 20.8528 27.6208 20.9008L25.6918 21.1296L25.1223 27.7511C25.0797 28.247 25.4689 28.6591 25.9188 28.6159C26.2142 28.5878 26.573 28.5535 26.9774 28.5149L26.403 30.6831C26.3717 30.8012 26.3533 30.9224 26.348 31.0445L26.0439 38.1851C26.0041 39.1192 26.7291 39.9087 27.6631 39.9484C27.6877 39.9494 27.7121 39.95 27.7365 39.95C28.6381 39.9499 29.3877 39.2387 29.4265 38.3292L29.7229 31.3723L30.5707 28.1717C30.7848 28.1513 30.9995 28.1308 31.2137 28.1104V31.6226C31.2137 31.7539 31.229 31.8848 31.2592 32.0125L32.8297 38.6471C33.014 39.4257 33.7088 39.9504 34.4756 39.9504C34.6046 39.9504 34.7358 39.9355 34.867 39.9044C35.7767 39.6891 36.3397 38.777 36.1244 37.8672L34.5994 31.425V27.7872C35.1252 27.737 35.5873 27.6929 35.9529 27.658C36.4041 27.615 36.7059 27.1337 36.5711 26.6581Z"
                      fill="#FE5B3E"
                    />
                    <path
                      d="M17.2184 14.7373C16.5324 12.9963 16.9669 11.8524 16.9669 11.8524C17.3195 10.7028 18.194 9.77961 19.3127 9.35985L14.7937 7.86873C12.9974 7.27608 11.0198 7.72863 9.66238 9.04584C7.70528 10.945 5.52194 13.1254 5.52194 13.1254C5.08774 13.5493 4.94077 14.1877 5.14576 14.7589L7.23539 20.5807C6.84805 20.7062 6.56699 21.0701 6.56699 21.4987C6.56777 21.9351 6.56433 22.5022 6.57105 22.5834H4.77943C4.01567 22.5834 3.39655 23.2471 3.39655 24.0108V30.2581C3.39655 31.0218 4.01567 31.641 4.77943 31.641H4.95537V31.9455C4.95537 32.2189 5.17708 32.4406 5.45056 32.4406H6.69444C6.96792 32.4406 7.18963 32.2189 7.18963 31.9455V31.641H10.3862V31.9455C10.3862 32.2189 10.6079 32.4406 10.8814 32.4406H12.1503C12.4238 32.4406 12.6455 32.2189 12.6455 31.9455V31.641H12.8214C13.5852 31.641 14.2043 31.0218 14.2043 30.2581V24.0108C14.2043 23.2471 13.5852 22.5834 12.8214 22.5834H11.0299C11.0365 22.5032 11.0329 22.0727 11.0339 21.4987C11.0339 21.0735 10.7572 20.7123 10.3745 20.5841C10.3954 20.364 10.3712 20.1364 10.2916 19.9146L8.40156 14.6487L10.8526 12.2553L9.43201 14.4729L11.2604 19.5668C11.3031 19.6856 11.336 19.8055 11.3605 19.9257C11.8182 19.2596 12.6484 18.9009 13.4866 19.0843C14.4764 19.3009 15.131 19.4442 16.8423 19.8187C17.1701 18.0724 17.1525 18.0183 17.2536 17.716C17.4788 17.0422 17.9702 16.5107 18.5856 16.2458C18.0076 15.875 17.5341 15.3563 17.2184 14.7373ZM9.35587 21.8981C9.58695 21.8152 9.78491 21.6818 9.94477 21.5164H10.051V22.5833H7.5498V21.5164H7.71809C8.13417 21.9459 8.76962 22.1085 9.35587 21.8981Z"
                      fill="#FE5B3E"
                    />
                  </g>
                  <defs>
                    <clipPath id="clip0_1_871">
                      <rect width="40" height="40" fill="white" />
                    </clipPath>
                  </defs>
                </svg>