<svg
                  width="40"
                  height="40"
                  viewBox="0 0 40 40"
                  fill="none"
                  xmlns="http://www.w3.org/2000/svg"
                >
                  <g clip-path="url(#clip0_1_891)">
                    <path
                      d="M10.9863 20.56C10.9863 20.56 8.85668 22.3658 10.299 26.5479C10.3699 27.6381 9.81726 28.6687 9.26927 28.8757C8.71934 29.0819 7.2259 33.7465 9.35434 40.0004H11.8574C11.8574 40.0004 10.0636 36.5043 10.9835 33.0665C11.9004 29.6314 16.086 26.026 16.086 26.026C18.0108 27.0567 19.4901 26.607 21.9646 26.2647C22.5839 28.1197 23.7523 29.6243 23.958 30.2808C24.1645 30.936 23.7523 33.8242 26.7754 40.0004H29.5426C29.5426 40.0004 25.2128 32.7439 27.8943 26.5479C28.2358 26.1283 31.4654 23.9279 31.4654 19.5973C31.7423 16.3683 27.7902 13.0684 28.5801 11.4899C28.8543 10.9382 29.3356 10.7319 30.7116 10.9382C32.0856 11.1446 33.3213 10.8714 33.459 10.1133C33.5974 9.35837 33.2534 9.28993 31.9464 8.94563C30.7922 8.64157 30.385 7.58551 27.9233 7.29867C28.0915 7.03945 28.2419 6.71519 28.3525 6.28716C28.4802 5.79766 28.1869 5.29851 27.6961 5.17202C27.2085 5.04641 26.7091 5.34023 26.5808 5.8281C26.4849 6.20788 26.3829 6.33541 26.3873 6.35501C25.9973 6.33868 25.0641 5.43673 24.2107 4.30659C24.7769 3.91167 25.2569 3.24935 25.6417 2.32157C25.8342 1.85538 25.6126 1.3209 25.1459 1.12804C24.6792 0.934288 24.1458 1.15521 23.9514 1.62259C23.7575 2.091 23.3602 2.881 22.878 2.91738C22.1208 2.96474 20.8204 1.51851 20.1803 0.447313C19.9216 0.0130432 19.3632 -0.128744 18.927 0.129145C18.4926 0.38748 18.3512 0.94765 18.6101 1.38147C18.9161 1.89755 20.3805 4.20504 22.213 4.66277C22.869 5.65008 25.202 7.93352 25.2615 8.08155C24.9459 8.14806 24.5694 8.16959 24.2944 8.00345C23.7339 7.65811 22.0016 7.67534 21.9394 8.28228C21.877 8.89233 23.1855 9.09499 24.0303 9.20367C24.3391 9.26781 24.6544 9.19342 24.8753 9.30062L24.8797 9.28741C24.8399 9.6755 24.8525 10.1306 24.9362 10.6644C25.3499 13.277 27.0687 15.9564 25.6925 17.4689C24.3184 18.981 19.9919 18.4996 16.7593 17.949C13.5288 17.3999 7.04403 18.1904 6.51192 20.2775C6.71784 21.2389 8.58082 21.8656 10.9863 20.56Z"
                      fill="#FE5B3E"
                    />
                  </g>
                  <defs>
                    <clipPath id="clip0_1_891">
                      <rect width="40" height="40" fill="white" />
                    </clipPath>
                  </defs>
                </svg>