<svg
                  width="40"
                  height="40"
                  viewBox="0 0 40 40"
                  fill="none"
                  xmlns="http://www.w3.org/2000/svg"
                >
                  <g clip-path="url(#clip0_1_911)">
                    <path
                      d="M22.3438 28.2812C19.113 28.2812 16.4844 30.9099 16.4844 34.1406C16.4844 37.3713 19.113 40 22.3438 40C25.5745 40 28.2031 37.3713 28.2031 34.1406C28.2031 30.9099 25.5745 28.2812 22.3438 28.2812ZM23.5156 35.3125H21.1719V32.9688H23.5156V35.3125Z"
                      fill="#FE5B3E"
                    />
                    <path
                      d="M28.2032 0H18.8282C14.6909 0 10.9663 2.52664 9.23065 6.22648C10.6465 5.36719 12.3671 4.84375 14.1407 4.84375H32.8907C34.6644 4.84375 36.3849 5.36719 37.8008 6.22648C36.0652 2.52664 32.3406 0 28.2032 0Z"
                      fill="#FE5B3E"
                    />
                    <path
                      d="M32.8906 7.1875H14.1406C10.2634 7.1875 7.03125 10.3415 7.03125 14.2188C7.03125 18.096 10.2634 21.25 14.1406 21.25H16.4844C18.9655 21.25 21.2165 19.9523 22.5085 17.7779L23.5156 16.0807L24.5227 17.7779C25.8148 19.9523 28.0658 21.25 30.5469 21.25H32.8906C36.7679 21.25 40 18.096 40 14.2188C40 10.3415 36.7679 7.1875 32.8906 7.1875Z"
                      fill="#FE5B3E"
                    />
                    <path
                      d="M23.5156 20.3746C22.2396 21.8492 20.5589 22.8542 18.6954 23.309C19.7688 24.9125 21.5322 25.9376 23.5156 25.9376C25.4989 25.9376 27.2622 24.9125 28.3358 23.309C26.472 22.8541 24.7909 21.8492 23.5156 20.3746Z"
                      fill="#FE5B3E"
                    />
                    <path
                      d="M14.5231 31.7969H12.9688C8.43828 31.7969 4.6875 28.1242 4.6875 23.5938V21.25H0V23.5938C0 30.713 5.84953 36.4844 12.9688 36.4844H14.5231C14.2981 35.7368 14.1406 34.9605 14.1406 34.1406C14.1406 33.3208 14.2981 32.5445 14.5231 31.7969Z"
                      fill="#FE5B3E"
                    />
                    <path
                      d="M4.6875 16.5625H0V18.9062H4.6875V16.5625Z"
                      fill="#FE5B3E"
                    />
                    <path d="M4.6875 0H0V14.2188H4.6875V0Z" fill="#FE5B3E" />
                  </g>
                  <defs>
                    <clipPath id="clip0_1_911">
                      <rect width="40" height="40" fill="white" />
                    </clipPath>
                  </defs>
                </svg>